<svg width="94" height="131" viewBox="0 0 94 131" fill="none" xmlns="http://www.w3.org/2000/svg">
<g clip-path="url(#clip0_585_2810)">
<path d="M91.43 0.930176H0.97998V129.44H92.09V0.930176H91.43Z" fill="white"/>
<path d="M92.41 0H0V130.35H93.07V0H92.41ZM91.74 129.1H1.33V1.26H91.75V129.1H91.74Z" fill="black"/>
<path fill-rule="evenodd" clip-rule="evenodd" d="M3.35986 3.3501H89.7199V127.08H3.35986V3.3501ZM7.91992 23.73H85.0999V100.48H7.91992V23.73ZM64.4102 26.46L16.7002 38.55L33.5102 97.87L81.2202 85.79L76.8502 70.34L48.7102 77.47L46.8302 70.81L74.9702 63.68L70.5802 48.24L42.4602 55.35L40.6602 49.04L68.7902 41.9L64.4102 26.46ZM14.6499 26.54C12.1699 26.54 10.1899 28.36 10.1899 30.59C10.1899 32.84 12.1699 34.67 14.6499 34.67C17.0999 34.67 19.0799 32.85 19.0799 30.59C19.0799 28.36 17.1099 26.54 14.6499 26.54ZM14.6599 27.26C16.6899 27.26 18.3099 28.75 18.3099 30.59C18.3099 32.44 16.6799 33.95 14.6599 33.95C12.6299 33.95 10.9799 32.44 10.9799 30.59C10.9799 28.76 12.6299 27.26 14.6599 27.26ZM13.7099 32.93V30.87L14.3799 30.88C14.4402 30.8863 14.4995 30.8899 14.5575 30.8935C14.779 30.9071 14.9815 30.9195 15.1399 31.07C15.3424 31.2472 15.3741 31.5525 15.4091 31.8898C15.4155 31.9523 15.4221 32.0159 15.4299 32.08C15.4601 32.2914 15.5131 32.5199 15.5631 32.7354C15.5793 32.8053 15.5952 32.8739 15.6099 32.94H16.6599C16.5181 32.6012 16.457 32.219 16.3983 31.8519L16.3983 31.8519C16.3825 31.7531 16.3669 31.6555 16.3499 31.56C16.2699 31.04 16.1799 30.73 15.4699 30.61V30.59C16.1699 30.46 16.5199 30.01 16.5199 29.47C16.5199 28.38 15.5499 28.14 14.5899 28.14H12.8899V32.93H13.7099ZM15.5299 29.44C15.5299 29.79 15.3399 30.1 14.5799 30.12H13.7099V28.89H14.6899C15.3399 28.89 15.5299 29.08 15.5299 29.44ZM61.8098 7.39014C59.0598 7.39014 57.5298 8.72014 57.5298 11.1001V16.1901C57.5298 19.0001 58.6298 20.4601 61.8098 20.4601C64.9998 20.4601 66.0398 19.0001 66.0398 16.1901V11.1001C66.0398 8.72014 64.5498 7.39014 61.8098 7.39014ZM62.8898 16.4301C62.8898 17.1501 62.8198 18.2101 61.8098 18.2101C60.7898 18.2101 60.6598 17.1501 60.6598 16.4301V11.3101C60.6598 10.5401 60.7898 9.63014 61.7898 9.63014C62.8198 9.63014 62.8898 10.5401 62.8898 11.3101V16.4301ZM73.5799 14.5899H73.6299L73.3299 7.60986H76.3099V20.0799H73.0899L70.6499 13.1099L70.6099 13.1399L70.8999 20.0799H67.9199V7.60986H71.1499L73.5799 14.5899ZM81.7398 14.9099V17.5999H85.8198V20.0799H78.5898V7.60986H85.7999V10.1199H81.7398V12.4199H85.6698V14.9099H81.7398ZM51.3901 11.6999H51.4301L53.0401 7.60986H56.1801L52.9401 14.8399V20.0799H49.8001V14.8399L46.6401 7.60986H49.8101L51.3901 11.6999ZM45.4899 15.5601C45.4399 14.7001 44.8099 14.1301 43.9499 13.9601V13.9001C45.2699 13.3601 45.6099 12.3901 45.6099 11.0601C45.6099 8.5901 44.3199 7.6001 41.7499 7.6001H37.1499V20.0801H40.2999V15.1501H41.3499C42.0799 15.2101 42.3199 15.7001 42.4199 16.4801C42.4627 16.8924 42.4626 17.3763 42.4624 17.9059V17.9059V17.906V17.906V17.9061V17.9061C42.4622 18.3655 42.462 18.8592 42.4899 19.3701C42.4999 19.6101 42.5799 19.8501 42.6699 20.0801H46.0999V19.9201C45.9499 19.8101 45.8599 19.6701 45.7999 19.5001C45.6748 18.9734 45.6191 17.8616 45.5699 16.8809C45.5444 16.372 45.5207 15.8983 45.4899 15.5601ZM41.3699 12.9201H40.2999V9.8701C41.8399 9.8501 42.4999 9.8901 42.4999 11.3701C42.4999 12.1501 42.2799 12.9201 41.3699 12.9201ZM35.0102 14.9099H31.0702V17.5999H35.3402V20.0799H27.9302V7.60986H35.1402V10.1199H31.0702V12.4199H35.0102V14.9099ZM21.6101 16.3599H21.5801L19.9701 7.60986H16.8301L19.7301 20.0899H23.4301L26.3701 7.60986H23.2301L21.6101 16.3599ZM15.2501 14.9099H11.2801V17.5999H15.5901V20.0799H8.12012V7.60986H15.3701V10.1199H11.2801V12.4199H15.2501V14.9099ZM15.1899 103.51C13.0599 103.51 12.9099 104.8 12.8599 106.56V107.54C12.8599 109.38 12.9999 110.72 15.1899 110.72C17.3799 110.72 17.5199 109.37 17.5199 107.54V106.56C17.4599 104.8 17.3299 103.51 15.1899 103.51ZM15.1899 109.67C14.2699 109.67 14.2299 108.75 14.2299 108.18V106.29C14.2299 106.254 14.2294 106.214 14.229 106.172C14.2229 105.6 14.2117 104.55 15.1899 104.55C16.1524 104.55 16.1507 105.703 16.1499 106.273L16.1499 106.32V108.07C16.1499 108.73 16.1399 109.67 15.1899 109.67ZM11.8448 108.3C11.8498 108.233 11.8548 108.165 11.8598 108.1L10.5198 108.11C10.5158 108.17 10.5137 108.242 10.5115 108.321C10.4967 108.838 10.4727 109.68 9.83977 109.68C8.92977 109.68 8.87977 108.76 8.87977 108.19V106.3C8.87977 106.263 8.87934 106.223 8.87889 106.18C8.87278 105.6 8.86173 104.55 9.83977 104.55C10.4006 104.55 10.4478 105.168 10.4823 105.62C10.4877 105.692 10.4929 105.76 10.4998 105.82H11.8198C11.8298 105.65 11.8098 105.47 11.7898 105.3C11.6898 104.12 11.0298 103.53 9.83977 103.52C7.70977 103.52 7.56977 104.81 7.50977 106.57V107.55C7.50977 109.38 7.63977 110.72 9.83977 110.72C11.3298 110.72 11.7598 109.75 11.8298 108.5C11.8348 108.435 11.8398 108.368 11.8448 108.3ZM21.9398 103.68H23.2798V110.54H21.8898L20.8398 108.09C20.4898 107.27 20.2098 106.45 19.8898 105.36H19.8698C19.9198 105.93 19.9698 106.62 20.0198 107.33C20.0598 108.01 20.0898 108.69 20.0898 109.24V110.53H18.7598V103.67H20.1398L21.1798 106.17C21.5198 106.96 21.8098 107.78 22.1398 108.9H22.1598C22.1098 108.28 22.0598 107.6 22.0298 106.95L22.0199 106.742L22.011 106.559C21.9854 106.038 21.9598 105.516 21.9598 105.02L21.9398 103.68ZM28.5301 103.68H24.0801V104.69H25.6401V110.54H26.9801V104.69H28.5301V103.68ZM29.29 110.54V103.68H33.05V104.69H30.63V106.42H32.86V107.43H30.63V109.54H33.05V110.54H29.29ZM38.6201 103.68H37.2901L37.3001 105.02C37.3001 105.64 37.3301 106.29 37.3701 106.95C37.4001 107.6 37.4501 108.28 37.5001 108.9H37.4801C37.1501 107.78 36.8701 106.96 36.5201 106.17L35.4801 103.67H34.1001V110.53H35.4401V109.24C35.4401 108.69 35.4101 108.01 35.3701 107.33C35.3201 106.62 35.2701 105.93 35.2201 105.36H35.2401C35.5601 106.45 35.8501 107.27 36.2001 108.09L37.2301 110.54H38.6201V103.68ZM39.4399 103.68H43.8899V104.69H42.3299V110.54H40.9999V104.69H39.4399V103.68ZM48.3898 110.54V107.58L48.6298 107.59C49.0098 107.59 49.3898 107.59 49.7598 107.69C50.1988 107.814 50.2097 108.339 50.2185 108.76L50.2198 108.82L50.2206 108.862L50.2215 108.932C50.2221 108.982 50.2224 109.036 50.2227 109.093C50.2252 109.553 50.2286 110.189 50.3598 110.55H51.8298V110.42C51.5246 110.226 51.5359 108.774 51.5393 108.335C51.5396 108.3 51.5398 108.271 51.5398 108.25C51.5398 107.58 51.2998 107.1 50.5098 107V106.97C51.3998 106.85 51.5998 106.07 51.5998 105.32C51.5998 104.05 50.7298 103.67 49.5698 103.67H47.0498V110.54H48.3898ZM49.4398 106.58H48.3998V104.69H49.3898C49.8898 104.7 50.2198 104.82 50.2198 105.59C50.2198 106.29 49.8798 106.56 49.4398 106.58ZM52.3301 110.54L54.0401 103.68H55.8301L57.4501 110.54H56.0301L55.6801 108.8H54.1201L53.7701 110.54H52.3301ZM54.3201 107.8H55.4601L55.1001 105.85C55.0496 105.619 55.0251 105.394 55.0004 105.166C54.9908 105.078 54.9812 104.989 54.9701 104.9C54.9601 104.73 54.9501 104.58 54.9201 104.44H54.9101C54.8801 104.59 54.8701 104.74 54.8601 104.9C54.8404 105.026 54.8238 105.151 54.8072 105.275L54.8072 105.275C54.7818 105.466 54.7564 105.656 54.7201 105.85L54.3201 107.8ZM62.16 103.68H57.71V104.69H59.27V110.54H60.61V104.69H62.16V103.68ZM62.9199 110.54V103.68H66.6799V104.69H64.2599V106.42H66.4799V107.43H64.2599V109.54H66.6799V110.54H62.9199ZM67.77 103.68V110.54H70.23C70.56 110.54 70.93 110.52 71.22 110.37C72.31 109.75 72.31 108.18 72.31 106.82C72.31 105.7 72.23 104.93 71.93 104.45C71.52 103.81 70.87 103.68 70.55 103.68H67.77ZM70.95 106.95C70.95 108.93 70.87 109.54 69.68 109.54H69.1V104.69H69.98C70.77 104.69 70.95 105.32 70.95 106.95ZM75.9102 110.54V103.67H78.0602C78.6402 103.67 79.2001 103.7 79.5702 104.17C79.8702 104.55 79.9302 104.94 79.9302 105.4C79.9302 106 79.7902 106.59 79.0702 106.84V106.86C79.8102 106.96 80.1002 107.57 80.1002 108.46C80.1002 108.74 80.0802 109.02 80.0002 109.3C79.7102 110.17 79.2001 110.54 78.2502 110.54H75.9102ZM77.5672 109.53L77.6139 109.531L77.6784 109.532C77.9072 109.537 78.1352 109.541 78.3302 109.46C78.6902 109.3 78.7302 108.85 78.7302 108.5C78.7302 107.76 78.5802 107.44 77.7602 107.44H77.2402V109.52H77.5201V109.53L77.5672 109.53ZM77.4802 106.45L77.5442 106.45C77.8616 106.451 78.2342 106.453 78.4402 106.2C78.5602 106.02 78.5802 105.8 78.5802 105.46C78.5802 104.96 78.4702 104.7 77.8502 104.69H77.2402V106.45H77.4802ZM83.2202 106.54C83.1702 106.17 83.0502 105.82 82.9102 105.48L82.1502 103.69H80.7002L82.5502 107.63V110.55H83.8802V107.63L85.7702 103.69H84.3102L83.6802 105.25L83.6344 105.355C83.4869 105.693 83.3307 106.051 83.2402 106.54H83.2202ZM7.74023 122.72V112.57H22.1502V114.94H13.5302V116.4H20.8202V118.76H13.5302V120.35H22.4802V122.72H7.74023ZM36.1401 114.83C36.5601 114.95 36.8801 115.18 36.9701 115.52L42.4701 115.53C42.0501 113.76 39.8101 112.32 34.9101 112.32C30.4901 112.32 27.2501 113.4 27.2501 115.56C27.2501 117.933 31.074 118.452 34.0323 118.854C35.8984 119.107 37.4201 119.314 37.4201 119.91C37.4201 120.39 36.4601 120.66 35.0101 120.66C34.4401 120.66 33.8301 120.57 33.3701 120.4C32.8801 120.23 32.5301 119.97 32.4101 119.6H26.8701C26.9901 121.43 30.0301 122.99 34.6901 122.99C39.5501 122.99 42.9601 121.84 42.9601 119.49C42.9601 117.239 39.1812 116.711 36.2327 116.299C34.3465 116.035 32.8001 115.819 32.8001 115.23C32.8001 114.86 33.3701 114.64 34.6401 114.64C35.2101 114.64 35.7301 114.7 36.1401 114.83ZM53.52 119.19V122.72H47.73V112.57H56.07C61.95 112.57 63.89 113.5 63.89 115.47C63.89 116.64 62.98 117.62 60.93 117.95L60.9382 117.952C62.7933 118.351 63.92 118.593 63.92 120.64C63.92 120.772 63.9192 120.895 63.9184 121.011L63.9184 121.012C63.9117 122.046 63.9093 122.41 64.53 122.41V122.72H58.67C58.52 122.49 58.38 121.84 58.38 120.94C58.38 119.61 57.98 119.18 55.29 119.18L53.52 119.19ZM53.52 116.96H55.79C57.58 116.96 58.54 116.7 58.54 115.99C58.54 115.28 57.57 114.94 56.21 114.94H53.51L53.52 116.96ZM69.54 112.57V122.72H78.15C82.74 122.72 85.75 121.93 85.75 119.66C85.75 118.57 84.72 117.62 82.81 117.34C83.94 116.94 85.12 116.18 85.12 115.13C85.12 113.11 81.96 112.57 77.98 112.57H69.54ZM75.33 120.35V118.48H77.17C79.01 118.48 80.36 118.53 80.36 119.42C80.36 120.18 79.28 120.35 77.85 120.35H75.33ZM75.33 116.63V114.94H77.38C78.59 114.94 79.73 114.95 79.73 115.74C79.73 116.33 78.89 116.63 77.74 116.63H75.33Z" fill="black"/>
</g>
<defs>
<clipPath id="clip0_585_2810">
<rect width="93.07" height="130.35" fill="white"/>
</clipPath>
</defs>
</svg>
