<svg width="200" height="100" viewBox="0 0 200 100" fill="none" xmlns="http://www.w3.org/2000/svg">
<path opacity="0.7" d="M38.5 47C38.5 51.9706 34.9706 59.5 30 59.5C25.0294 59.5 18.5 51.9706 18.5 47C18.5 42.0294 24.0294 40 29 40C33.9706 40 38.5 42.0294 38.5 47Z" fill="#4B9251"/>
<path opacity="0.7" d="M148 83C148 78.0294 141.971 72 137 72C132.029 72 129 79.5294 129 84.5C129 89.4706 134.529 90.5 139.5 90.5C144.471 90.5 148 87.9706 148 83Z" fill="#4B9251"/>
<path opacity="0.7" d="M93.5 81C93.5 90.3888 82.8888 94 73.5 94C64.1112 94 56.5 84.3888 56.5 75C56.5 65.6112 66.6112 62.5 76 62.5C85.3888 62.5 93.5 71.6112 93.5 81Z" fill="#933A42"/>
<path opacity="0.7" d="M157.5 11.5C157.5 5.70101 153.299 3 147.5 3C141.701 3 137 7.70101 137 13.5C137 19.299 139.701 23 145.5 23C151.299 23 157.5 17.299 157.5 11.5Z" fill="#933A42"/>
<path opacity="0.7" d="M58 52.52C58 54.7292 56.4919 56.52 54.2827 56.52C52.0736 56.52 50.2827 54.7292 50.2827 52.52C50.2827 50.3109 51.7909 50 54 50C56.2091 50 58 50.3109 58 52.52Z" fill="#93523E"/>
<path opacity="0.7" d="M186 26C186 20.4772 181.523 16 176 16C170.477 16 166 20.4772 166 26C166 31.5228 170.477 34 176 34C181.523 34 186 31.5228 186 26Z" fill="#93523E"/>
<path opacity="0.7" d="M88.5 24.5C88.5 31.1274 81.6274 37 75 37C68.3726 37 60.5 32.6274 60.5 26C60.5 19.3726 68.3726 14 75 14C81.6274 14 88.5 17.8726 88.5 24.5Z" fill="#784294"/>
<path opacity="0.7" d="M190.5 60C190.5 50.0589 180.941 43 171 43C161.059 43 151.5 48.0589 151.5 58C151.5 67.9411 163.559 79 173.5 79C183.441 79 190.5 69.9411 190.5 60Z" fill="#784294"/>
<path opacity="0.7" d="M29 75.5C29 80.4706 26.9706 86 22 86C17.0294 86 11 83.9706 11 79C11 74.0294 15.0294 70 20 70C24.9706 70 29 70.5294 29 75.5Z" fill="#939242"/>
<path opacity="0.7" d="M118 30C118 27.5147 113.985 24 111.5 24C109.015 24 107 29.0147 107 31.5C107 33.9853 109.015 36 111.5 36C113.985 36 118 32.4853 118 30Z" fill="#939242"/>
<path opacity="0.7" d="M36 16.5C36 21.7467 28 26.5 21 26.5C15.7533 26.5 13 21.7467 13 16.5C13 11.2533 15.7533 8 21 8C26.2467 8 36 11.2533 36 16.5Z" fill="#395A94"/>
<path opacity="0.7" d="M124 57.5C124 50.5964 120.404 46.5 113.5 46.5C106.596 46.5 99 50.5964 99 57.5C99 64.4036 106.596 68.5 113.5 68.5C120.404 68.5 124 64.4036 124 57.5Z" fill="#395A94"/>
</svg>
